ply
format ascii 1.0
comment VCGLIB generated
element vertex 2412
property float x
property float y
property float z
element face 0
property list uchar int vertex_indices
end_header
-0.5 -0.5 2.5
-0.495 -0.5 2.5
-0.49 -0.5 2.5
-0.485 -0.5 2.5
-0.48 -0.5 2.5
-0.475 -0.5 2.5
-0.47 -0.5 2.5
-0.465 -0.5 2.5
-0.46 -0.5 2.5
-0.455 -0.5 2.5
-0.45 -0.5 2.5
-0.445 -0.5 2.5
-0.44 -0.5 2.5
-0.435 -0.5 2.5
-0.43 -0.5 2.5
-0.425 -0.5 2.5
-0.42 -0.5 2.5
-0.415 -0.5 2.5
-0.41 -0.5 2.5
-0.405 -0.5 2.5
-0.4 -0.5 2.5
-0.395 -0.5 2.5
-0.39 -0.5 2.5
-0.385 -0.5 2.5
-0.38 -0.5 2.5
-0.375 -0.5 2.5
-0.37 -0.5 2.5
-0.365 -0.5 2.5
-0.36 -0.5 2.5
-0.355 -0.5 2.5
-0.35 -0.5 2.5
-0.345 -0.5 2.5
-0.34 -0.5 2.5
-0.335 -0.5 2.5
-0.33 -0.5 2.5
-0.325 -0.5 2.5
-0.32 -0.5 2.5
-0.315 -0.5 2.5
-0.31 -0.5 2.5
-0.305 -0.5 2.5
-0.3 -0.5 2.5
-0.295 -0.5 2.5
-0.29 -0.5 2.5
-0.285 -0.5 2.5
-0.28 -0.5 2.5
-0.275 -0.5 2.5
-0.27 -0.5 2.5
-0.265 -0.5 2.5
-0.26 -0.5 2.5
-0.255 -0.5 2.5
-0.25 -0.5 2.5
-0.245 -0.5 2.5
-0.24 -0.5 2.5
-0.235 -0.5 2.5
-0.23 -0.5 2.5
-0.225 -0.5 2.5
-0.22 -0.5 2.5
-0.215 -0.5 2.5
-0.21 -0.5 2.5
-0.205 -0.5 2.5
-0.2 -0.5 2.5
-0.195 -0.5 2.5
-0.19 -0.5 2.5
-0.185 -0.5 2.5
-0.18 -0.5 2.5
-0.175 -0.5 2.5
-0.17 -0.5 2.5
-0.165 -0.5 2.5
-0.16 -0.5 2.5
-0.155 -0.5 2.5
-0.15 -0.5 2.5
-0.145 -0.5 2.5
-0.14 -0.5 2.5
-0.135 -0.5 2.5
-0.13 -0.5 2.5
-0.125 -0.5 2.5
-0.12 -0.5 2.5
-0.115 -0.5 2.5
-0.11 -0.5 2.5
-0.105 -0.5 2.5
-0.1 -0.5 2.5
-0.095 -0.5 2.5
-0.09 -0.5 2.5
-0.085 -0.5 2.5
-0.08 -0.5 2.5
-0.075 -0.5 2.5
-0.07 -0.5 2.5
-0.065 -0.5 2.5
-0.06 -0.5 2.5
-0.055 -0.5 2.5
-0.05 -0.5 2.5
-0.045 -0.5 2.5
-0.04 -0.5 2.5
-0.035 -0.5 2.5
-0.03 -0.5 2.5
-0.025 -0.5 2.5
-0.02 -0.5 2.5
-0.015 -0.5 2.5
-0.01 -0.5 2.5
-0.005 -0.5 2.5
0 -0.5 2.5
0.005 -0.5 2.5
0.01 -0.5 2.5
0.015 -0.5 2.5
0.02 -0.5 2.5
0.025 -0.5 2.5
0.03 -0.5 2.5
0.035 -0.5 2.5
0.04 -0.5 2.5
0.045 -0.5 2.5
0.05 -0.5 2.5
0.055 -0.5 2.5
0.06 -0.5 2.5
0.065 -0.5 2.5
0.07 -0.5 2.5
0.075 -0.5 2.5
0.08 -0.5 2.5
0.085 -0.5 2.5
0.09 -0.5 2.5
0.095 -0.5 2.5
0.1 -0.5 2.5
0.105 -0.5 2.5
0.11 -0.5 2.5
0.115 -0.5 2.5
0.12 -0.5 2.5
0.125 -0.5 2.5
0.13 -0.5 2.5
0.135 -0.5 2.5
0.14 -0.5 2.5
0.145 -0.5 2.5
0.15 -0.5 2.5
0.155 -0.5 2.5
0.16 -0.5 2.5
0.165 -0.5 2.5
0.17 -0.5 2.5
0.175 -0.5 2.5
0.18 -0.5 2.5
0.185 -0.5 2.5
0.19 -0.5 2.5
0.195 -0.5 2.5
0.2 -0.5 2.5
0.205 -0.5 2.5
0.21 -0.5 2.5
0.215 -0.5 2.5
0.22 -0.5 2.5
0.225 -0.5 2.5
0.23 -0.5 2.5
0.235 -0.5 2.5
0.24 -0.5 2.5
0.245 -0.5 2.5
0.25 -0.5 2.5
0.255 -0.5 2.5
0.26 -0.5 2.5
0.265 -0.5 2.5
0.27 -0.5 2.5
0.275 -0.5 2.5
0.28 -0.5 2.5
0.285 -0.5 2.5
0.29 -0.5 2.5
0.295 -0.5 2.5
0.3 -0.5 2.5
0.305 -0.5 2.5
0.31 -0.5 2.5
0.315 -0.5 2.5
0.32 -0.5 2.5
0.325 -0.5 2.5
0.33 -0.5 2.5
0.335 -0.5 2.5
0.34 -0.5 2.5
0.345 -0.5 2.5
0.35 -0.5 2.5
0.355 -0.5 2.5
0.36 -0.5 2.5
0.365 -0.5 2.5
0.37 -0.5 2.5
0.375 -0.5 2.5
0.38 -0.5 2.5
0.385 -0.5 2.5
0.39 -0.5 2.5
0.395 -0.5 2.5
0.4 -0.5 2.5
0.405 -0.5 2.5
0.41 -0.5 2.5
0.415 -0.5 2.5
0.42 -0.5 2.5
0.425 -0.5 2.5
0.43 -0.5 2.5
0.435 -0.5 2.5
0.44 -0.5 2.5
0.445 -0.5 2.5
0.45 -0.5 2.5
0.455 -0.5 2.5
0.46 -0.5 2.5
0.465 -0.5 2.5
0.47 -0.5 2.5
0.475 -0.5 2.5
0.48 -0.5 2.5
0.485 -0.5 2.5
0.49 -0.5 2.5
0.495 -0.5 2.5
0.5 -0.5 2.5
-0.5 0.5 2.5
-0.495 0.5 2.5
-0.49 0.5 2.5
-0.485 0.5 2.5
-0.48 0.5 2.5
-0.475 0.5 2.5
-0.47 0.5 2.5
-0.465 0.5 2.5
-0.46 0.5 2.5
-0.455 0.5 2.5
-0.45 0.5 2.5
-0.445 0.5 2.5
-0.44 0.5 2.5
-0.435 0.5 2.5
-0.43 0.5 2.5
-0.425 0.5 2.5
-0.42 0.5 2.5
-0.415 0.5 2.5
-0.41 0.5 2.5
-0.405 0.5 2.5
-0.4 0.5 2.5
-0.395 0.5 2.5
-0.39 0.5 2.5
-0.385 0.5 2.5
-0.38 0.5 2.5
-0.375 0.5 2.5
-0.37 0.5 2.5
-0.365 0.5 2.5
-0.36 0.5 2.5
-0.355 0.5 2.5
-0.35 0.5 2.5
-0.345 0.5 2.5
-0.34 0.5 2.5
-0.335 0.5 2.5
-0.33 0.5 2.5
-0.325 0.5 2.5
-0.32 0.5 2.5
-0.315 0.5 2.5
-0.31 0.5 2.5
-0.305 0.5 2.5
-0.3 0.5 2.5
-0.295 0.5 2.5
-0.29 0.5 2.5
-0.285 0.5 2.5
-0.28 0.5 2.5
-0.275 0.5 2.5
-0.27 0.5 2.5
-0.265 0.5 2.5
-0.26 0.5 2.5
-0.255 0.5 2.5
-0.25 0.5 2.5
-0.245 0.5 2.5
-0.24 0.5 2.5
-0.235 0.5 2.5
-0.23 0.5 2.5
-0.225 0.5 2.5
-0.22 0.5 2.5
-0.215 0.5 2.5
-0.21 0.5 2.5
-0.205 0.5 2.5
-0.2 0.5 2.5
-0.195 0.5 2.5
-0.19 0.5 2.5
-0.185 0.5 2.5
-0.18 0.5 2.5
-0.175 0.5 2.5
-0.17 0.5 2.5
-0.165 0.5 2.5
-0.16 0.5 2.5
-0.155 0.5 2.5
-0.15 0.5 2.5
-0.145 0.5 2.5
-0.14 0.5 2.5
-0.135 0.5 2.5
-0.13 0.5 2.5
-0.125 0.5 2.5
-0.12 0.5 2.5
-0.115 0.5 2.5
-0.11 0.5 2.5
-0.105 0.5 2.5
-0.1 0.5 2.5
-0.095 0.5 2.5
-0.09 0.5 2.5
-0.085 0.5 2.5
-0.08 0.5 2.5
-0.075 0.5 2.5
-0.07 0.5 2.5
-0.065 0.5 2.5
-0.06 0.5 2.5
-0.055 0.5 2.5
-0.05 0.5 2.5
-0.045 0.5 2.5
-0.04 0.5 2.5
-0.035 0.5 2.5
-0.03 0.5 2.5
-0.025 0.5 2.5
-0.02 0.5 2.5
-0.015 0.5 2.5
-0.01 0.5 2.5
-0.005 0.5 2.5
0 0.5 2.5
0.005 0.5 2.5
0.01 0.5 2.5
0.015 0.5 2.5
0.02 0.5 2.5
0.025 0.5 2.5
0.03 0.5 2.5
0.035 0.5 2.5
0.04 0.5 2.5
0.045 0.5 2.5
0.05 0.5 2.5
0.055 0.5 2.5
0.06 0.5 2.5
0.065 0.5 2.5
0.07 0.5 2.5
0.075 0.5 2.5
0.08 0.5 2.5
0.085 0.5 2.5
0.09 0.5 2.5
0.095 0.5 2.5
0.1 0.5 2.5
0.105 0.5 2.5
0.11 0.5 2.5
0.115 0.5 2.5
0.12 0.5 2.5
0.125 0.5 2.5
0.13 0.5 2.5
0.135 0.5 2.5
0.14 0.5 2.5
0.145 0.5 2.5
0.15 0.5 2.5
0.155 0.5 2.5
0.16 0.5 2.5
0.165 0.5 2.5
0.17 0.5 2.5
0.175 0.5 2.5
0.18 0.5 2.5
0.185 0.5 2.5
0.19 0.5 2.5
0.195 0.5 2.5
0.2 0.5 2.5
0.205 0.5 2.5
0.21 0.5 2.5
0.215 0.5 2.5
0.22 0.5 2.5
0.225 0.5 2.5
0.23 0.5 2.5
0.235 0.5 2.5
0.24 0.5 2.5
0.245 0.5 2.5
0.25 0.5 2.5
0.255 0.5 2.5
0.26 0.5 2.5
0.265 0.5 2.5
0.27 0.5 2.5
0.275 0.5 2.5
0.28 0.5 2.5
0.285 0.5 2.5
0.29 0.5 2.5
0.295 0.5 2.5
0.3 0.5 2.5
0.305 0.5 2.5
0.31 0.5 2.5
0.315 0.5 2.5
0.32 0.5 2.5
0.325 0.5 2.5
0.33 0.5 2.5
0.335 0.5 2.5
0.34 0.5 2.5
0.345 0.5 2.5
0.35 0.5 2.5
0.355 0.5 2.5
0.36 0.5 2.5
0.365 0.5 2.5
0.37 0.5 2.5
0.375 0.5 2.5
0.38 0.5 2.5
0.385 0.5 2.5
0.39 0.5 2.5
0.395 0.5 2.5
0.4 0.5 2.5
0.405 0.5 2.5
0.41 0.5 2.5
0.415 0.5 2.5
0.42 0.5 2.5
0.425 0.5 2.5
0.43 0.5 2.5
0.435 0.5 2.5
0.44 0.5 2.5
0.445 0.5 2.5
0.45 0.5 2.5
0.455 0.5 2.5
0.46 0.5 2.5
0.465 0.5 2.5
0.47 0.5 2.5
0.475 0.5 2.5
0.48 0.5 2.5
0.485 0.5 2.5
0.49 0.5 2.5
0.495 0.5 2.5
0.5 0.5 2.5
-0.5 -0.5 3.5
-0.495 -0.5 3.5
-0.49 -0.5 3.5
-0.485 -0.5 3.5
-0.48 -0.5 3.5
-0.475 -0.5 3.5
-0.47 -0.5 3.5
-0.465 -0.5 3.5
-0.46 -0.5 3.5
-0.455 -0.5 3.5
-0.45 -0.5 3.5
-0.445 -0.5 3.5
-0.44 -0.5 3.5
-0.435 -0.5 3.5
-0.43 -0.5 3.5
-0.425 -0.5 3.5
-0.42 -0.5 3.5
-0.415 -0.5 3.5
-0.41 -0.5 3.5
-0.405 -0.5 3.5
-0.4 -0.5 3.5
-0.395 -0.5 3.5
-0.39 -0.5 3.5
-0.385 -0.5 3.5
-0.38 -0.5 3.5
-0.375 -0.5 3.5
-0.37 -0.5 3.5
-0.365 -0.5 3.5
-0.36 -0.5 3.5
-0.355 -0.5 3.5
-0.35 -0.5 3.5
-0.345 -0.5 3.5
-0.34 -0.5 3.5
-0.335 -0.5 3.5
-0.33 -0.5 3.5
-0.325 -0.5 3.5
-0.32 -0.5 3.5
-0.315 -0.5 3.5
-0.31 -0.5 3.5
-0.305 -0.5 3.5
-0.3 -0.5 3.5
-0.295 -0.5 3.5
-0.29 -0.5 3.5
-0.285 -0.5 3.5
-0.28 -0.5 3.5
-0.275 -0.5 3.5
-0.27 -0.5 3.5
-0.265 -0.5 3.5
-0.26 -0.5 3.5
-0.255 -0.5 3.5
-0.25 -0.5 3.5
-0.245 -0.5 3.5
-0.24 -0.5 3.5
-0.235 -0.5 3.5
-0.23 -0.5 3.5
-0.225 -0.5 3.5
-0.22 -0.5 3.5
-0.215 -0.5 3.5
-0.21 -0.5 3.5
-0.205 -0.5 3.5
-0.2 -0.5 3.5
-0.195 -0.5 3.5
-0.19 -0.5 3.5
-0.185 -0.5 3.5
-0.18 -0.5 3.5
-0.175 -0.5 3.5
-0.17 -0.5 3.5
-0.165 -0.5 3.5
-0.16 -0.5 3.5
-0.155 -0.5 3.5
-0.15 -0.5 3.5
-0.145 -0.5 3.5
-0.14 -0.5 3.5
-0.135 -0.5 3.5
-0.13 -0.5 3.5
-0.125 -0.5 3.5
-0.12 -0.5 3.5
-0.115 -0.5 3.5
-0.11 -0.5 3.5
-0.105 -0.5 3.5
-0.1 -0.5 3.5
-0.095 -0.5 3.5
-0.09 -0.5 3.5
-0.085 -0.5 3.5
-0.08 -0.5 3.5
-0.075 -0.5 3.5
-0.07 -0.5 3.5
-0.065 -0.5 3.5
-0.06 -0.5 3.5
-0.055 -0.5 3.5
-0.05 -0.5 3.5
-0.045 -0.5 3.5
-0.04 -0.5 3.5
-0.035 -0.5 3.5
-0.03 -0.5 3.5
-0.025 -0.5 3.5
-0.02 -0.5 3.5
-0.015 -0.5 3.5
-0.01 -0.5 3.5
-0.005 -0.5 3.5
0 -0.5 3.5
0.005 -0.5 3.5
0.01 -0.5 3.5
0.015 -0.5 3.5
0.02 -0.5 3.5
0.025 -0.5 3.5
0.03 -0.5 3.5
0.035 -0.5 3.5
0.04 -0.5 3.5
0.045 -0.5 3.5
0.05 -0.5 3.5
0.055 -0.5 3.5
0.06 -0.5 3.5
0.065 -0.5 3.5
0.07 -0.5 3.5
0.075 -0.5 3.5
0.08 -0.5 3.5
0.085 -0.5 3.5
0.09 -0.5 3.5
0.095 -0.5 3.5
0.1 -0.5 3.5
0.105 -0.5 3.5
0.11 -0.5 3.5
0.115 -0.5 3.5
0.12 -0.5 3.5
0.125 -0.5 3.5
0.13 -0.5 3.5
0.135 -0.5 3.5
0.14 -0.5 3.5
0.145 -0.5 3.5
0.15 -0.5 3.5
0.155 -0.5 3.5
0.16 -0.5 3.5
0.165 -0.5 3.5
0.17 -0.5 3.5
0.175 -0.5 3.5
0.18 -0.5 3.5
0.185 -0.5 3.5
0.19 -0.5 3.5
0.195 -0.5 3.5
0.2 -0.5 3.5
0.205 -0.5 3.5
0.21 -0.5 3.5
0.215 -0.5 3.5
0.22 -0.5 3.5
0.225 -0.5 3.5
0.23 -0.5 3.5
0.235 -0.5 3.5
0.24 -0.5 3.5
0.245 -0.5 3.5
0.25 -0.5 3.5
0.255 -0.5 3.5
0.26 -0.5 3.5
0.265 -0.5 3.5
0.27 -0.5 3.5
0.275 -0.5 3.5
0.28 -0.5 3.5
0.285 -0.5 3.5
0.29 -0.5 3.5
0.295 -0.5 3.5
0.3 -0.5 3.5
0.305 -0.5 3.5
0.31 -0.5 3.5
0.315 -0.5 3.5
0.32 -0.5 3.5
0.325 -0.5 3.5
0.33 -0.5 3.5
0.335 -0.5 3.5
0.34 -0.5 3.5
0.345 -0.5 3.5
0.35 -0.5 3.5
0.355 -0.5 3.5
0.36 -0.5 3.5
0.365 -0.5 3.5
0.37 -0.5 3.5
0.375 -0.5 3.5
0.38 -0.5 3.5
0.385 -0.5 3.5
0.39 -0.5 3.5
0.395 -0.5 3.5
0.4 -0.5 3.5
0.405 -0.5 3.5
0.41 -0.5 3.5
0.415 -0.5 3.5
0.42 -0.5 3.5
0.425 -0.5 3.5
0.43 -0.5 3.5
0.435 -0.5 3.5
0.44 -0.5 3.5
0.445 -0.5 3.5
0.45 -0.5 3.5
0.455 -0.5 3.5
0.46 -0.5 3.5
0.465 -0.5 3.5
0.47 -0.5 3.5
0.475 -0.5 3.5
0.48 -0.5 3.5
0.485 -0.5 3.5
0.49 -0.5 3.5
0.495 -0.5 3.5
0.5 -0.5 3.5
-0.5 0.5 3.5
-0.495 0.5 3.5
-0.49 0.5 3.5
-0.485 0.5 3.5
-0.48 0.5 3.5
-0.475 0.5 3.5
-0.47 0.5 3.5
-0.465 0.5 3.5
-0.46 0.5 3.5
-0.455 0.5 3.5
-0.45 0.5 3.5
-0.445 0.5 3.5
-0.44 0.5 3.5
-0.435 0.5 3.5
-0.43 0.5 3.5
-0.425 0.5 3.5
-0.42 0.5 3.5
-0.415 0.5 3.5
-0.41 0.5 3.5
-0.405 0.5 3.5
-0.4 0.5 3.5
-0.395 0.5 3.5
-0.39 0.5 3.5
-0.385 0.5 3.5
-0.38 0.5 3.5
-0.375 0.5 3.5
-0.37 0.5 3.5
-0.365 0.5 3.5
-0.36 0.5 3.5
-0.355 0.5 3.5
-0.35 0.5 3.5
-0.345 0.5 3.5
-0.34 0.5 3.5
-0.335 0.5 3.5
-0.33 0.5 3.5
-0.325 0.5 3.5
-0.32 0.5 3.5
-0.315 0.5 3.5
-0.31 0.5 3.5
-0.305 0.5 3.5
-0.3 0.5 3.5
-0.295 0.5 3.5
-0.29 0.5 3.5
-0.285 0.5 3.5
-0.28 0.5 3.5
-0.275 0.5 3.5
-0.27 0.5 3.5
-0.265 0.5 3.5
-0.26 0.5 3.5
-0.255 0.5 3.5
-0.25 0.5 3.5
-0.245 0.5 3.5
-0.24 0.5 3.5
-0.235 0.5 3.5
-0.23 0.5 3.5
-0.225 0.5 3.5
-0.22 0.5 3.5
-0.215 0.5 3.5
-0.21 0.5 3.5
-0.205 0.5 3.5
-0.2 0.5 3.5
-0.195 0.5 3.5
-0.19 0.5 3.5
-0.185 0.5 3.5
-0.18 0.5 3.5
-0.175 0.5 3.5
-0.17 0.5 3.5
-0.165 0.5 3.5
-0.16 0.5 3.5
-0.155 0.5 3.5
-0.15 0.5 3.5
-0.145 0.5 3.5
-0.14 0.5 3.5
-0.135 0.5 3.5
-0.13 0.5 3.5
-0.125 0.5 3.5
-0.12 0.5 3.5
-0.115 0.5 3.5
-0.11 0.5 3.5
-0.105 0.5 3.5
-0.1 0.5 3.5
-0.095 0.5 3.5
-0.09 0.5 3.5
-0.085 0.5 3.5
-0.08 0.5 3.5
-0.075 0.5 3.5
-0.07 0.5 3.5
-0.065 0.5 3.5
-0.06 0.5 3.5
-0.055 0.5 3.5
-0.05 0.5 3.5
-0.045 0.5 3.5
-0.04 0.5 3.5
-0.035 0.5 3.5
-0.03 0.5 3.5
-0.025 0.5 3.5
-0.02 0.5 3.5
-0.015 0.5 3.5
-0.01 0.5 3.5
-0.005 0.5 3.5
0 0.5 3.5
0.005 0.5 3.5
0.01 0.5 3.5
0.015 0.5 3.5
0.02 0.5 3.5
0.025 0.5 3.5
0.03 0.5 3.5
0.035 0.5 3.5
0.04 0.5 3.5
0.045 0.5 3.5
0.05 0.5 3.5
0.055 0.5 3.5
0.06 0.5 3.5
0.065 0.5 3.5
0.07 0.5 3.5
0.075 0.5 3.5
0.08 0.5 3.5
0.085 0.5 3.5
0.09 0.5 3.5
0.095 0.5 3.5
0.1 0.5 3.5
0.105 0.5 3.5
0.11 0.5 3.5
0.115 0.5 3.5
0.12 0.5 3.5
0.125 0.5 3.5
0.13 0.5 3.5
0.135 0.5 3.5
0.14 0.5 3.5
0.145 0.5 3.5
0.15 0.5 3.5
0.155 0.5 3.5
0.16 0.5 3.5
0.165 0.5 3.5
0.17 0.5 3.5
0.175 0.5 3.5
0.18 0.5 3.5
0.185 0.5 3.5
0.19 0.5 3.5
0.195 0.5 3.5
0.2 0.5 3.5
0.205 0.5 3.5
0.21 0.5 3.5
0.215 0.5 3.5
0.22 0.5 3.5
0.225 0.5 3.5
0.23 0.5 3.5
0.235 0.5 3.5
0.24 0.5 3.5
0.245 0.5 3.5
0.25 0.5 3.5
0.255 0.5 3.5
0.26 0.5 3.5
0.265 0.5 3.5
0.27 0.5 3.5
0.275 0.5 3.5
0.28 0.5 3.5
0.285 0.5 3.5
0.29 0.5 3.5
0.295 0.5 3.5
0.3 0.5 3.5
0.305 0.5 3.5
0.31 0.5 3.5
0.315 0.5 3.5
0.32 0.5 3.5
0.325 0.5 3.5
0.33 0.5 3.5
0.335 0.5 3.5
0.34 0.5 3.5
0.345 0.5 3.5
0.35 0.5 3.5
0.355 0.5 3.5
0.36 0.5 3.5
0.365 0.5 3.5
0.37 0.5 3.5
0.375 0.5 3.5
0.38 0.5 3.5
0.385 0.5 3.5
0.39 0.5 3.5
0.395 0.5 3.5
0.4 0.5 3.5
0.405 0.5 3.5
0.41 0.5 3.5
0.415 0.5 3.5
0.42 0.5 3.5
0.425 0.5 3.5
0.43 0.5 3.5
0.435 0.5 3.5
0.44 0.5 3.5
0.445 0.5 3.5
0.45 0.5 3.5
0.455 0.5 3.5
0.46 0.5 3.5
0.465 0.5 3.5
0.47 0.5 3.5
0.475 0.5 3.5
0.48 0.5 3.5
0.485 0.5 3.5
0.49 0.5 3.5
0.495 0.5 3.5
0.5 0.5 3.5
-0.5 -0.5 2.5
-0.5 -0.495 2.5
-0.5 -0.49 2.5
-0.5 -0.485 2.5
-0.5 -0.48 2.5
-0.5 -0.475 2.5
-0.5 -0.47 2.5
-0.5 -0.465 2.5
-0.5 -0.46 2.5
-0.5 -0.455 2.5
-0.5 -0.45 2.5
-0.5 -0.445 2.5
-0.5 -0.44 2.5
-0.5 -0.435 2.5
-0.5 -0.43 2.5
-0.5 -0.425 2.5
-0.5 -0.42 2.5
-0.5 -0.415 2.5
-0.5 -0.41 2.5
-0.5 -0.405 2.5
-0.5 -0.4 2.5
-0.5 -0.395 2.5
-0.5 -0.39 2.5
-0.5 -0.385 2.5
-0.5 -0.38 2.5
-0.5 -0.375 2.5
-0.5 -0.37 2.5
-0.5 -0.365 2.5
-0.5 -0.36 2.5
-0.5 -0.355 2.5
-0.5 -0.35 2.5
-0.5 -0.345 2.5
-0.5 -0.34 2.5
-0.5 -0.335 2.5
-0.5 -0.33 2.5
-0.5 -0.325 2.5
-0.5 -0.32 2.5
-0.5 -0.315 2.5
-0.5 -0.31 2.5
-0.5 -0.305 2.5
-0.5 -0.3 2.5
-0.5 -0.295 2.5
-0.5 -0.29 2.5
-0.5 -0.285 2.5
-0.5 -0.28 2.5
-0.5 -0.275 2.5
-0.5 -0.27 2.5
-0.5 -0.265 2.5
-0.5 -0.26 2.5
-0.5 -0.255 2.5
-0.5 -0.25 2.5
-0.5 -0.245 2.5
-0.5 -0.24 2.5
-0.5 -0.235 2.5
-0.5 -0.23 2.5
-0.5 -0.225 2.5
-0.5 -0.22 2.5
-0.5 -0.215 2.5
-0.5 -0.21 2.5
-0.5 -0.205 2.5
-0.5 -0.2 2.5
-0.5 -0.195 2.5
-0.5 -0.19 2.5
-0.5 -0.185 2.5
-0.5 -0.18 2.5
-0.5 -0.175 2.5
-0.5 -0.17 2.5
-0.5 -0.165 2.5
-0.5 -0.16 2.5
-0.5 -0.155 2.5
-0.5 -0.15 2.5
-0.5 -0.145 2.5
-0.5 -0.14 2.5
-0.5 -0.135 2.5
-0.5 -0.13 2.5
-0.5 -0.125 2.5
-0.5 -0.12 2.5
-0.5 -0.115 2.5
-0.5 -0.11 2.5
-0.5 -0.105 2.5
-0.5 -0.1 2.5
-0.5 -0.095 2.5
-0.5 -0.09 2.5
-0.5 -0.085 2.5
-0.5 -0.08 2.5
-0.5 -0.075 2.5
-0.5 -0.07 2.5
-0.5 -0.065 2.5
-0.5 -0.06 2.5
-0.5 -0.055 2.5
-0.5 -0.05 2.5
-0.5 -0.045 2.5
-0.5 -0.04 2.5
-0.5 -0.035 2.5
-0.5 -0.03 2.5
-0.5 -0.025 2.5
-0.5 -0.02 2.5
-0.5 -0.015 2.5
-0.5 -0.01 2.5
-0.5 -0.005 2.5
-0.5 0 2.5
-0.5 0.005 2.5
-0.5 0.01 2.5
-0.5 0.015 2.5
-0.5 0.02 2.5
-0.5 0.025 2.5
-0.5 0.03 2.5
-0.5 0.035 2.5
-0.5 0.04 2.5
-0.5 0.045 2.5
-0.5 0.05 2.5
-0.5 0.055 2.5
-0.5 0.06 2.5
-0.5 0.065 2.5
-0.5 0.07 2.5
-0.5 0.075 2.5
-0.5 0.08 2.5
-0.5 0.085 2.5
-0.5 0.09 2.5
-0.5 0.095 2.5
-0.5 0.1 2.5
-0.5 0.105 2.5
-0.5 0.11 2.5
-0.5 0.115 2.5
-0.5 0.12 2.5
-0.5 0.125 2.5
-0.5 0.13 2.5
-0.5 0.135 2.5
-0.5 0.14 2.5
-0.5 0.145 2.5
-0.5 0.15 2.5
-0.5 0.155 2.5
-0.5 0.16 2.5
-0.5 0.165 2.5
-0.5 0.17 2.5
-0.5 0.175 2.5
-0.5 0.18 2.5
-0.5 0.185 2.5
-0.5 0.19 2.5
-0.5 0.195 2.5
-0.5 0.2 2.5
-0.5 0.205 2.5
-0.5 0.21 2.5
-0.5 0.215 2.5
-0.5 0.22 2.5
-0.5 0.225 2.5
-0.5 0.23 2.5
-0.5 0.235 2.5
-0.5 0.24 2.5
-0.5 0.245 2.5
-0.5 0.25 2.5
-0.5 0.255 2.5
-0.5 0.26 2.5
-0.5 0.265 2.5
-0.5 0.27 2.5
-0.5 0.275 2.5
-0.5 0.28 2.5
-0.5 0.285 2.5
-0.5 0.29 2.5
-0.5 0.295 2.5
-0.5 0.3 2.5
-0.5 0.305 2.5
-0.5 0.31 2.5
-0.5 0.315 2.5
-0.5 0.32 2.5
-0.5 0.325 2.5
-0.5 0.33 2.5
-0.5 0.335 2.5
-0.5 0.34 2.5
-0.5 0.345 2.5
-0.5 0.35 2.5
-0.5 0.355 2.5
-0.5 0.36 2.5
-0.5 0.365 2.5
-0.5 0.37 2.5
-0.5 0.375 2.5
-0.5 0.38 2.5
-0.5 0.385 2.5
-0.5 0.39 2.5
-0.5 0.395 2.5
-0.5 0.4 2.5
-0.5 0.405 2.5
-0.5 0.41 2.5
-0.5 0.415 2.5
-0.5 0.42 2.5
-0.5 0.425 2.5
-0.5 0.43 2.5
-0.5 0.435 2.5
-0.5 0.44 2.5
-0.5 0.445 2.5
-0.5 0.45 2.5
-0.5 0.455 2.5
-0.5 0.46 2.5
-0.5 0.465 2.5
-0.5 0.47 2.5
-0.5 0.475 2.5
-0.5 0.48 2.5
-0.5 0.485 2.5
-0.5 0.49 2.5
-0.5 0.495 2.5
-0.5 0.5 2.5
0.5 -0.5 2.5
0.5 -0.495 2.5
0.5 -0.49 2.5
0.5 -0.485 2.5
0.5 -0.48 2.5
0.5 -0.475 2.5
0.5 -0.47 2.5
0.5 -0.465 2.5
0.5 -0.46 2.5
0.5 -0.455 2.5
0.5 -0.45 2.5
0.5 -0.445 2.5
0.5 -0.44 2.5
0.5 -0.435 2.5
0.5 -0.43 2.5
0.5 -0.425 2.5
0.5 -0.42 2.5
0.5 -0.415 2.5
0.5 -0.41 2.5
0.5 -0.405 2.5
0.5 -0.4 2.5
0.5 -0.395 2.5
0.5 -0.39 2.5
0.5 -0.385 2.5
0.5 -0.38 2.5
0.5 -0.375 2.5
0.5 -0.37 2.5
0.5 -0.365 2.5
0.5 -0.36 2.5
0.5 -0.355 2.5
0.5 -0.35 2.5
0.5 -0.345 2.5
0.5 -0.34 2.5
0.5 -0.335 2.5
0.5 -0.33 2.5
0.5 -0.325 2.5
0.5 -0.32 2.5
0.5 -0.315 2.5
0.5 -0.31 2.5
0.5 -0.305 2.5
0.5 -0.3 2.5
0.5 -0.295 2.5
0.5 -0.29 2.5
0.5 -0.285 2.5
0.5 -0.28 2.5
0.5 -0.275 2.5
0.5 -0.27 2.5
0.5 -0.265 2.5
0.5 -0.26 2.5
0.5 -0.255 2.5
0.5 -0.25 2.5
0.5 -0.245 2.5
0.5 -0.24 2.5
0.5 -0.235 2.5
0.5 -0.23 2.5
0.5 -0.225 2.5
0.5 -0.22 2.5
0.5 -0.215 2.5
0.5 -0.21 2.5
0.5 -0.205 2.5
0.5 -0.2 2.5
0.5 -0.195 2.5
0.5 -0.19 2.5
0.5 -0.185 2.5
0.5 -0.18 2.5
0.5 -0.175 2.5
0.5 -0.17 2.5
0.5 -0.165 2.5
0.5 -0.16 2.5
0.5 -0.155 2.5
0.5 -0.15 2.5
0.5 -0.145 2.5
0.5 -0.14 2.5
0.5 -0.135 2.5
0.5 -0.13 2.5
0.5 -0.125 2.5
0.5 -0.12 2.5
0.5 -0.115 2.5
0.5 -0.11 2.5
0.5 -0.105 2.5
0.5 -0.1 2.5
0.5 -0.095 2.5
0.5 -0.09 2.5
0.5 -0.085 2.5
0.5 -0.08 2.5
0.5 -0.075 2.5
0.5 -0.07 2.5
0.5 -0.065 2.5
0.5 -0.06 2.5
0.5 -0.055 2.5
0.5 -0.05 2.5
0.5 -0.045 2.5
0.5 -0.04 2.5
0.5 -0.035 2.5
0.5 -0.03 2.5
0.5 -0.025 2.5
0.5 -0.02 2.5
0.5 -0.015 2.5
0.5 -0.01 2.5
0.5 -0.005 2.5
0.5 0 2.5
0.5 0.005 2.5
0.5 0.01 2.5
0.5 0.015 2.5
0.5 0.02 2.5
0.5 0.025 2.5
0.5 0.03 2.5
0.5 0.035 2.5
0.5 0.04 2.5
0.5 0.045 2.5
0.5 0.05 2.5
0.5 0.055 2.5
0.5 0.06 2.5
0.5 0.065 2.5
0.5 0.07 2.5
0.5 0.075 2.5
0.5 0.08 2.5
0.5 0.085 2.5
0.5 0.09 2.5
0.5 0.095 2.5
0.5 0.1 2.5
0.5 0.105 2.5
0.5 0.11 2.5
0.5 0.115 2.5
0.5 0.12 2.5
0.5 0.125 2.5
0.5 0.13 2.5
0.5 0.135 2.5
0.5 0.14 2.5
0.5 0.145 2.5
0.5 0.15 2.5
0.5 0.155 2.5
0.5 0.16 2.5
0.5 0.165 2.5
0.5 0.17 2.5
0.5 0.175 2.5
0.5 0.18 2.5
0.5 0.185 2.5
0.5 0.19 2.5
0.5 0.195 2.5
0.5 0.2 2.5
0.5 0.205 2.5
0.5 0.21 2.5
0.5 0.215 2.5
0.5 0.22 2.5
0.5 0.225 2.5
0.5 0.23 2.5
0.5 0.235 2.5
0.5 0.24 2.5
0.5 0.245 2.5
0.5 0.25 2.5
0.5 0.255 2.5
0.5 0.26 2.5
0.5 0.265 2.5
0.5 0.27 2.5
0.5 0.275 2.5
0.5 0.28 2.5
0.5 0.285 2.5
0.5 0.29 2.5
0.5 0.295 2.5
0.5 0.3 2.5
0.5 0.305 2.5
0.5 0.31 2.5
0.5 0.315 2.5
0.5 0.32 2.5
0.5 0.325 2.5
0.5 0.33 2.5
0.5 0.335 2.5
0.5 0.34 2.5
0.5 0.345 2.5
0.5 0.35 2.5
0.5 0.355 2.5
0.5 0.36 2.5
0.5 0.365 2.5
0.5 0.37 2.5
0.5 0.375 2.5
0.5 0.38 2.5
0.5 0.385 2.5
0.5 0.39 2.5
0.5 0.395 2.5
0.5 0.4 2.5
0.5 0.405 2.5
0.5 0.41 2.5
0.5 0.415 2.5
0.5 0.42 2.5
0.5 0.425 2.5
0.5 0.43 2.5
0.5 0.435 2.5
0.5 0.44 2.5
0.5 0.445 2.5
0.5 0.45 2.5
0.5 0.455 2.5
0.5 0.46 2.5
0.5 0.465 2.5
0.5 0.47 2.5
0.5 0.475 2.5
0.5 0.48 2.5
0.5 0.485 2.5
0.5 0.49 2.5
0.5 0.495 2.5
0.5 0.5 2.5
-0.5 -0.5 3.5
-0.5 -0.495 3.5
-0.5 -0.49 3.5
-0.5 -0.485 3.5
-0.5 -0.48 3.5
-0.5 -0.475 3.5
-0.5 -0.47 3.5
-0.5 -0.465 3.5
-0.5 -0.46 3.5
-0.5 -0.455 3.5
-0.5 -0.45 3.5
-0.5 -0.445 3.5
-0.5 -0.44 3.5
-0.5 -0.435 3.5
-0.5 -0.43 3.5
-0.5 -0.425 3.5
-0.5 -0.42 3.5
-0.5 -0.415 3.5
-0.5 -0.41 3.5
-0.5 -0.405 3.5
-0.5 -0.4 3.5
-0.5 -0.395 3.5
-0.5 -0.39 3.5
-0.5 -0.385 3.5
-0.5 -0.38 3.5
-0.5 -0.375 3.5
-0.5 -0.37 3.5
-0.5 -0.365 3.5
-0.5 -0.36 3.5
-0.5 -0.355 3.5
-0.5 -0.35 3.5
-0.5 -0.345 3.5
-0.5 -0.34 3.5
-0.5 -0.335 3.5
-0.5 -0.33 3.5
-0.5 -0.325 3.5
-0.5 -0.32 3.5
-0.5 -0.315 3.5
-0.5 -0.31 3.5
-0.5 -0.305 3.5
-0.5 -0.3 3.5
-0.5 -0.295 3.5
-0.5 -0.29 3.5
-0.5 -0.285 3.5
-0.5 -0.28 3.5
-0.5 -0.275 3.5
-0.5 -0.27 3.5
-0.5 -0.265 3.5
-0.5 -0.26 3.5
-0.5 -0.255 3.5
-0.5 -0.25 3.5
-0.5 -0.245 3.5
-0.5 -0.24 3.5
-0.5 -0.235 3.5
-0.5 -0.23 3.5
-0.5 -0.225 3.5
-0.5 -0.22 3.5
-0.5 -0.215 3.5
-0.5 -0.21 3.5
-0.5 -0.205 3.5
-0.5 -0.2 3.5
-0.5 -0.195 3.5
-0.5 -0.19 3.5
-0.5 -0.185 3.5
-0.5 -0.18 3.5
-0.5 -0.175 3.5
-0.5 -0.17 3.5
-0.5 -0.165 3.5
-0.5 -0.16 3.5
-0.5 -0.155 3.5
-0.5 -0.15 3.5
-0.5 -0.145 3.5
-0.5 -0.14 3.5
-0.5 -0.135 3.5
-0.5 -0.13 3.5
-0.5 -0.125 3.5
-0.5 -0.12 3.5
-0.5 -0.115 3.5
-0.5 -0.11 3.5
-0.5 -0.105 3.5
-0.5 -0.1 3.5
-0.5 -0.095 3.5
-0.5 -0.09 3.5
-0.5 -0.085 3.5
-0.5 -0.08 3.5
-0.5 -0.075 3.5
-0.5 -0.07 3.5
-0.5 -0.065 3.5
-0.5 -0.06 3.5
-0.5 -0.055 3.5
-0.5 -0.05 3.5
-0.5 -0.045 3.5
-0.5 -0.04 3.5
-0.5 -0.035 3.5
-0.5 -0.03 3.5
-0.5 -0.025 3.5
-0.5 -0.02 3.5
-0.5 -0.015 3.5
-0.5 -0.01 3.5
-0.5 -0.005 3.5
-0.5 0 3.5
-0.5 0.005 3.5
-0.5 0.01 3.5
-0.5 0.015 3.5
-0.5 0.02 3.5
-0.5 0.025 3.5
-0.5 0.03 3.5
-0.5 0.035 3.5
-0.5 0.04 3.5
-0.5 0.045 3.5
-0.5 0.05 3.5
-0.5 0.055 3.5
-0.5 0.06 3.5
-0.5 0.065 3.5
-0.5 0.07 3.5
-0.5 0.075 3.5
-0.5 0.08 3.5
-0.5 0.085 3.5
-0.5 0.09 3.5
-0.5 0.095 3.5
-0.5 0.1 3.5
-0.5 0.105 3.5
-0.5 0.11 3.5
-0.5 0.115 3.5
-0.5 0.12 3.5
-0.5 0.125 3.5
-0.5 0.13 3.5
-0.5 0.135 3.5
-0.5 0.14 3.5
-0.5 0.145 3.5
-0.5 0.15 3.5
-0.5 0.155 3.5
-0.5 0.16 3.5
-0.5 0.165 3.5
-0.5 0.17 3.5
-0.5 0.175 3.5
-0.5 0.18 3.5
-0.5 0.185 3.5
-0.5 0.19 3.5
-0.5 0.195 3.5
-0.5 0.2 3.5
-0.5 0.205 3.5
-0.5 0.21 3.5
-0.5 0.215 3.5
-0.5 0.22 3.5
-0.5 0.225 3.5
-0.5 0.23 3.5
-0.5 0.235 3.5
-0.5 0.24 3.5
-0.5 0.245 3.5
-0.5 0.25 3.5
-0.5 0.255 3.5
-0.5 0.26 3.5
-0.5 0.265 3.5
-0.5 0.27 3.5
-0.5 0.275 3.5
-0.5 0.28 3.5
-0.5 0.285 3.5
-0.5 0.29 3.5
-0.5 0.295 3.5
-0.5 0.3 3.5
-0.5 0.305 3.5
-0.5 0.31 3.5
-0.5 0.315 3.5
-0.5 0.32 3.5
-0.5 0.325 3.5
-0.5 0.33 3.5
-0.5 0.335 3.5
-0.5 0.34 3.5
-0.5 0.345 3.5
-0.5 0.35 3.5
-0.5 0.355 3.5
-0.5 0.36 3.5
-0.5 0.365 3.5
-0.5 0.37 3.5
-0.5 0.375 3.5
-0.5 0.38 3.5
-0.5 0.385 3.5
-0.5 0.39 3.5
-0.5 0.395 3.5
-0.5 0.4 3.5
-0.5 0.405 3.5
-0.5 0.41 3.5
-0.5 0.415 3.5
-0.5 0.42 3.5
-0.5 0.425 3.5
-0.5 0.43 3.5
-0.5 0.435 3.5
-0.5 0.44 3.5
-0.5 0.445 3.5
-0.5 0.45 3.5
-0.5 0.455 3.5
-0.5 0.46 3.5
-0.5 0.465 3.5
-0.5 0.47 3.5
-0.5 0.475 3.5
-0.5 0.48 3.5
-0.5 0.485 3.5
-0.5 0.49 3.5
-0.5 0.495 3.5
-0.5 0.5 3.5
0.5 -0.5 3.5
0.5 -0.495 3.5
0.5 -0.49 3.5
0.5 -0.485 3.5
0.5 -0.48 3.5
0.5 -0.475 3.5
0.5 -0.47 3.5
0.5 -0.465 3.5
0.5 -0.46 3.5
0.5 -0.455 3.5
0.5 -0.45 3.5
0.5 -0.445 3.5
0.5 -0.44 3.5
0.5 -0.435 3.5
0.5 -0.43 3.5
0.5 -0.425 3.5
0.5 -0.42 3.5
0.5 -0.415 3.5
0.5 -0.41 3.5
0.5 -0.405 3.5
0.5 -0.4 3.5
0.5 -0.395 3.5
0.5 -0.39 3.5
0.5 -0.385 3.5
0.5 -0.38 3.5
0.5 -0.375 3.5
0.5 -0.37 3.5
0.5 -0.365 3.5
0.5 -0.36 3.5
0.5 -0.355 3.5
0.5 -0.35 3.5
0.5 -0.345 3.5
0.5 -0.34 3.5
0.5 -0.335 3.5
0.5 -0.33 3.5
0.5 -0.325 3.5
0.5 -0.32 3.5
0.5 -0.315 3.5
0.5 -0.31 3.5
0.5 -0.305 3.5
0.5 -0.3 3.5
0.5 -0.295 3.5
0.5 -0.29 3.5
0.5 -0.285 3.5
0.5 -0.28 3.5
0.5 -0.275 3.5
0.5 -0.27 3.5
0.5 -0.265 3.5
0.5 -0.26 3.5
0.5 -0.255 3.5
0.5 -0.25 3.5
0.5 -0.245 3.5
0.5 -0.24 3.5
0.5 -0.235 3.5
0.5 -0.23 3.5
0.5 -0.225 3.5
0.5 -0.22 3.5
0.5 -0.215 3.5
0.5 -0.21 3.5
0.5 -0.205 3.5
0.5 -0.2 3.5
0.5 -0.195 3.5
0.5 -0.19 3.5
0.5 -0.185 3.5
0.5 -0.18 3.5
0.5 -0.175 3.5
0.5 -0.17 3.5
0.5 -0.165 3.5
0.5 -0.16 3.5
0.5 -0.155 3.5
0.5 -0.15 3.5
0.5 -0.145 3.5
0.5 -0.14 3.5
0.5 -0.135 3.5
0.5 -0.13 3.5
0.5 -0.125 3.5
0.5 -0.12 3.5
0.5 -0.115 3.5
0.5 -0.11 3.5
0.5 -0.105 3.5
0.5 -0.1 3.5
0.5 -0.095 3.5
0.5 -0.09 3.5
0.5 -0.085 3.5
0.5 -0.08 3.5
0.5 -0.075 3.5
0.5 -0.07 3.5
0.5 -0.065 3.5
0.5 -0.06 3.5
0.5 -0.055 3.5
0.5 -0.05 3.5
0.5 -0.045 3.5
0.5 -0.04 3.5
0.5 -0.035 3.5
0.5 -0.03 3.5
0.5 -0.025 3.5
0.5 -0.02 3.5
0.5 -0.015 3.5
0.5 -0.01 3.5
0.5 -0.005 3.5
0.5 0 3.5
0.5 0.005 3.5
0.5 0.01 3.5
0.5 0.015 3.5
0.5 0.02 3.5
0.5 0.025 3.5
0.5 0.03 3.5
0.5 0.035 3.5
0.5 0.04 3.5
0.5 0.045 3.5
0.5 0.05 3.5
0.5 0.055 3.5
0.5 0.06 3.5
0.5 0.065 3.5
0.5 0.07 3.5
0.5 0.075 3.5
0.5 0.08 3.5
0.5 0.085 3.5
0.5 0.09 3.5
0.5 0.095 3.5
0.5 0.1 3.5
0.5 0.105 3.5
0.5 0.11 3.5
0.5 0.115 3.5
0.5 0.12 3.5
0.5 0.125 3.5
0.5 0.13 3.5
0.5 0.135 3.5
0.5 0.14 3.5
0.5 0.145 3.5
0.5 0.15 3.5
0.5 0.155 3.5
0.5 0.16 3.5
0.5 0.165 3.5
0.5 0.17 3.5
0.5 0.175 3.5
0.5 0.18 3.5
0.5 0.185 3.5
0.5 0.19 3.5
0.5 0.195 3.5
0.5 0.2 3.5
0.5 0.205 3.5
0.5 0.21 3.5
0.5 0.215 3.5
0.5 0.22 3.5
0.5 0.225 3.5
0.5 0.23 3.5
0.5 0.235 3.5
0.5 0.24 3.5
0.5 0.245 3.5
0.5 0.25 3.5
0.5 0.255 3.5
0.5 0.26 3.5
0.5 0.265 3.5
0.5 0.27 3.5
0.5 0.275 3.5
0.5 0.28 3.5
0.5 0.285 3.5
0.5 0.29 3.5
0.5 0.295 3.5
0.5 0.3 3.5
0.5 0.305 3.5
0.5 0.31 3.5
0.5 0.315 3.5
0.5 0.32 3.5
0.5 0.325 3.5
0.5 0.33 3.5
0.5 0.335 3.5
0.5 0.34 3.5
0.5 0.345 3.5
0.5 0.35 3.5
0.5 0.355 3.5
0.5 0.36 3.5
0.5 0.365 3.5
0.5 0.37 3.5
0.5 0.375 3.5
0.5 0.38 3.5
0.5 0.385 3.5
0.5 0.39 3.5
0.5 0.395 3.5
0.5 0.4 3.5
0.5 0.405 3.5
0.5 0.41 3.5
0.5 0.415 3.5
0.5 0.42 3.5
0.5 0.425 3.5
0.5 0.43 3.5
0.5 0.435 3.5
0.5 0.44 3.5
0.5 0.445 3.5
0.5 0.45 3.5
0.5 0.455 3.5
0.5 0.46 3.5
0.5 0.465 3.5
0.5 0.47 3.5
0.5 0.475 3.5
0.5 0.48 3.5
0.5 0.485 3.5
0.5 0.49 3.5
0.5 0.495 3.5
0.5 0.5 3.5
-0.5 -0.5 2.5
-0.5 -0.5 2.505
-0.5 -0.5 2.51
-0.5 -0.5 2.515
-0.5 -0.5 2.52
-0.5 -0.5 2.525
-0.5 -0.5 2.53
-0.5 -0.5 2.535
-0.5 -0.5 2.54
-0.5 -0.5 2.545
-0.5 -0.5 2.55
-0.5 -0.5 2.555
-0.5 -0.5 2.56
-0.5 -0.5 2.565
-0.5 -0.5 2.57
-0.5 -0.5 2.575
-0.5 -0.5 2.58
-0.5 -0.5 2.585
-0.5 -0.5 2.59
-0.5 -0.5 2.595
-0.5 -0.5 2.6
-0.5 -0.5 2.605
-0.5 -0.5 2.61
-0.5 -0.5 2.615
-0.5 -0.5 2.62
-0.5 -0.5 2.625
-0.5 -0.5 2.63
-0.5 -0.5 2.635
-0.5 -0.5 2.64
-0.5 -0.5 2.645
-0.5 -0.5 2.65
-0.5 -0.5 2.655
-0.5 -0.5 2.66
-0.5 -0.5 2.665
-0.5 -0.5 2.67
-0.5 -0.5 2.675
-0.5 -0.5 2.68
-0.5 -0.5 2.685
-0.5 -0.5 2.69
-0.5 -0.5 2.695
-0.5 -0.5 2.7
-0.5 -0.5 2.705
-0.5 -0.5 2.71
-0.5 -0.5 2.715
-0.5 -0.5 2.72
-0.5 -0.5 2.725
-0.5 -0.5 2.73
-0.5 -0.5 2.735
-0.5 -0.5 2.74
-0.5 -0.5 2.745
-0.5 -0.5 2.75
-0.5 -0.5 2.755
-0.5 -0.5 2.76
-0.5 -0.5 2.765
-0.5 -0.5 2.77
-0.5 -0.5 2.775
-0.5 -0.5 2.78
-0.5 -0.5 2.785
-0.5 -0.5 2.79
-0.5 -0.5 2.795
-0.5 -0.5 2.8
-0.5 -0.5 2.805
-0.5 -0.5 2.81
-0.5 -0.5 2.815
-0.5 -0.5 2.82
-0.5 -0.5 2.825
-0.5 -0.5 2.83
-0.5 -0.5 2.835
-0.5 -0.5 2.84
-0.5 -0.5 2.845
-0.5 -0.5 2.85
-0.5 -0.5 2.855
-0.5 -0.5 2.86
-0.5 -0.5 2.865
-0.5 -0.5 2.87
-0.5 -0.5 2.875
-0.5 -0.5 2.88
-0.5 -0.5 2.885
-0.5 -0.5 2.89
-0.5 -0.5 2.895
-0.5 -0.5 2.9
-0.5 -0.5 2.905
-0.5 -0.5 2.91
-0.5 -0.5 2.915
-0.5 -0.5 2.92
-0.5 -0.5 2.925
-0.5 -0.5 2.93
-0.5 -0.5 2.935
-0.5 -0.5 2.94
-0.5 -0.5 2.945
-0.5 -0.5 2.95
-0.5 -0.5 2.955
-0.5 -0.5 2.96
-0.5 -0.5 2.965
-0.5 -0.5 2.97
-0.5 -0.5 2.975
-0.5 -0.5 2.98
-0.5 -0.5 2.985
-0.5 -0.5 2.99
-0.5 -0.5 2.995
-0.5 -0.5 3
-0.5 -0.5 3.005
-0.5 -0.5 3.01
-0.5 -0.5 3.015
-0.5 -0.5 3.02
-0.5 -0.5 3.025
-0.5 -0.5 3.03
-0.5 -0.5 3.035
-0.5 -0.5 3.04
-0.5 -0.5 3.045
-0.5 -0.5 3.05
-0.5 -0.5 3.055
-0.5 -0.5 3.06
-0.5 -0.5 3.065
-0.5 -0.5 3.07
-0.5 -0.5 3.075
-0.5 -0.5 3.08
-0.5 -0.5 3.085
-0.5 -0.5 3.09
-0.5 -0.5 3.095
-0.5 -0.5 3.1
-0.5 -0.5 3.105
-0.5 -0.5 3.11
-0.5 -0.5 3.115
-0.5 -0.5 3.12
-0.5 -0.5 3.125
-0.5 -0.5 3.13
-0.5 -0.5 3.135
-0.5 -0.5 3.14
-0.5 -0.5 3.145
-0.5 -0.5 3.15
-0.5 -0.5 3.155
-0.5 -0.5 3.16
-0.5 -0.5 3.165
-0.5 -0.5 3.17
-0.5 -0.5 3.175
-0.5 -0.5 3.18
-0.5 -0.5 3.185
-0.5 -0.5 3.19
-0.5 -0.5 3.195
-0.5 -0.5 3.2
-0.5 -0.5 3.205
-0.5 -0.5 3.21
-0.5 -0.5 3.215
-0.5 -0.5 3.22
-0.5 -0.5 3.225
-0.5 -0.5 3.23
-0.5 -0.5 3.235
-0.5 -0.5 3.24
-0.5 -0.5 3.245
-0.5 -0.5 3.25
-0.5 -0.5 3.255
-0.5 -0.5 3.26
-0.5 -0.5 3.265
-0.5 -0.5 3.27
-0.5 -0.5 3.275
-0.5 -0.5 3.28
-0.5 -0.5 3.285
-0.5 -0.5 3.29
-0.5 -0.5 3.295
-0.5 -0.5 3.3
-0.5 -0.5 3.305
-0.5 -0.5 3.31
-0.5 -0.5 3.315
-0.5 -0.5 3.32
-0.5 -0.5 3.325
-0.5 -0.5 3.33
-0.5 -0.5 3.335
-0.5 -0.5 3.34
-0.5 -0.5 3.345
-0.5 -0.5 3.35
-0.5 -0.5 3.355
-0.5 -0.5 3.36
-0.5 -0.5 3.365
-0.5 -0.5 3.37
-0.5 -0.5 3.375
-0.5 -0.5 3.38
-0.5 -0.5 3.385
-0.5 -0.5 3.39
-0.5 -0.5 3.395
-0.5 -0.5 3.4
-0.5 -0.5 3.405
-0.5 -0.5 3.41
-0.5 -0.5 3.415
-0.5 -0.5 3.42
-0.5 -0.5 3.425
-0.5 -0.5 3.43
-0.5 -0.5 3.435
-0.5 -0.5 3.44
-0.5 -0.5 3.445
-0.5 -0.5 3.45
-0.5 -0.5 3.455
-0.5 -0.5 3.46
-0.5 -0.5 3.465
-0.5 -0.5 3.47
-0.5 -0.5 3.475
-0.5 -0.5 3.48
-0.5 -0.5 3.485
-0.5 -0.5 3.49
-0.5 -0.5 3.495
-0.5 -0.5 3.5
0.5 -0.5 2.5
0.5 -0.5 2.505
0.5 -0.5 2.51
0.5 -0.5 2.515
0.5 -0.5 2.52
0.5 -0.5 2.525
0.5 -0.5 2.53
0.5 -0.5 2.535
0.5 -0.5 2.54
0.5 -0.5 2.545
0.5 -0.5 2.55
0.5 -0.5 2.555
0.5 -0.5 2.56
0.5 -0.5 2.565
0.5 -0.5 2.57
0.5 -0.5 2.575
0.5 -0.5 2.58
0.5 -0.5 2.585
0.5 -0.5 2.59
0.5 -0.5 2.595
0.5 -0.5 2.6
0.5 -0.5 2.605
0.5 -0.5 2.61
0.5 -0.5 2.615
0.5 -0.5 2.62
0.5 -0.5 2.625
0.5 -0.5 2.63
0.5 -0.5 2.635
0.5 -0.5 2.64
0.5 -0.5 2.645
0.5 -0.5 2.65
0.5 -0.5 2.655
0.5 -0.5 2.66
0.5 -0.5 2.665
0.5 -0.5 2.67
0.5 -0.5 2.675
0.5 -0.5 2.68
0.5 -0.5 2.685
0.5 -0.5 2.69
0.5 -0.5 2.695
0.5 -0.5 2.7
0.5 -0.5 2.705
0.5 -0.5 2.71
0.5 -0.5 2.715
0.5 -0.5 2.72
0.5 -0.5 2.725
0.5 -0.5 2.73
0.5 -0.5 2.735
0.5 -0.5 2.74
0.5 -0.5 2.745
0.5 -0.5 2.75
0.5 -0.5 2.755
0.5 -0.5 2.76
0.5 -0.5 2.765
0.5 -0.5 2.77
0.5 -0.5 2.775
0.5 -0.5 2.78
0.5 -0.5 2.785
0.5 -0.5 2.79
0.5 -0.5 2.795
0.5 -0.5 2.8
0.5 -0.5 2.805
0.5 -0.5 2.81
0.5 -0.5 2.815
0.5 -0.5 2.82
0.5 -0.5 2.825
0.5 -0.5 2.83
0.5 -0.5 2.835
0.5 -0.5 2.84
0.5 -0.5 2.845
0.5 -0.5 2.85
0.5 -0.5 2.855
0.5 -0.5 2.86
0.5 -0.5 2.865
0.5 -0.5 2.87
0.5 -0.5 2.875
0.5 -0.5 2.88
0.5 -0.5 2.885
0.5 -0.5 2.89
0.5 -0.5 2.895
0.5 -0.5 2.9
0.5 -0.5 2.905
0.5 -0.5 2.91
0.5 -0.5 2.915
0.5 -0.5 2.92
0.5 -0.5 2.925
0.5 -0.5 2.93
0.5 -0.5 2.935
0.5 -0.5 2.94
0.5 -0.5 2.945
0.5 -0.5 2.95
0.5 -0.5 2.955
0.5 -0.5 2.96
0.5 -0.5 2.965
0.5 -0.5 2.97
0.5 -0.5 2.975
0.5 -0.5 2.98
0.5 -0.5 2.985
0.5 -0.5 2.99
0.5 -0.5 2.995
0.5 -0.5 3
0.5 -0.5 3.005
0.5 -0.5 3.01
0.5 -0.5 3.015
0.5 -0.5 3.02
0.5 -0.5 3.025
0.5 -0.5 3.03
0.5 -0.5 3.035
0.5 -0.5 3.04
0.5 -0.5 3.045
0.5 -0.5 3.05
0.5 -0.5 3.055
0.5 -0.5 3.06
0.5 -0.5 3.065
0.5 -0.5 3.07
0.5 -0.5 3.075
0.5 -0.5 3.08
0.5 -0.5 3.085
0.5 -0.5 3.09
0.5 -0.5 3.095
0.5 -0.5 3.1
0.5 -0.5 3.105
0.5 -0.5 3.11
0.5 -0.5 3.115
0.5 -0.5 3.12
0.5 -0.5 3.125
0.5 -0.5 3.13
0.5 -0.5 3.135
0.5 -0.5 3.14
0.5 -0.5 3.145
0.5 -0.5 3.15
0.5 -0.5 3.155
0.5 -0.5 3.16
0.5 -0.5 3.165
0.5 -0.5 3.17
0.5 -0.5 3.175
0.5 -0.5 3.18
0.5 -0.5 3.185
0.5 -0.5 3.19
0.5 -0.5 3.195
0.5 -0.5 3.2
0.5 -0.5 3.205
0.5 -0.5 3.21
0.5 -0.5 3.215
0.5 -0.5 3.22
0.5 -0.5 3.225
0.5 -0.5 3.23
0.5 -0.5 3.235
0.5 -0.5 3.24
0.5 -0.5 3.245
0.5 -0.5 3.25
0.5 -0.5 3.255
0.5 -0.5 3.26
0.5 -0.5 3.265
0.5 -0.5 3.27
0.5 -0.5 3.275
0.5 -0.5 3.28
0.5 -0.5 3.285
0.5 -0.5 3.29
0.5 -0.5 3.295
0.5 -0.5 3.3
0.5 -0.5 3.305
0.5 -0.5 3.31
0.5 -0.5 3.315
0.5 -0.5 3.32
0.5 -0.5 3.325
0.5 -0.5 3.33
0.5 -0.5 3.335
0.5 -0.5 3.34
0.5 -0.5 3.345
0.5 -0.5 3.35
0.5 -0.5 3.355
0.5 -0.5 3.36
0.5 -0.5 3.365
0.5 -0.5 3.37
0.5 -0.5 3.375
0.5 -0.5 3.38
0.5 -0.5 3.385
0.5 -0.5 3.39
0.5 -0.5 3.395
0.5 -0.5 3.4
0.5 -0.5 3.405
0.5 -0.5 3.41
0.5 -0.5 3.415
0.5 -0.5 3.42
0.5 -0.5 3.425
0.5 -0.5 3.43
0.5 -0.5 3.435
0.5 -0.5 3.44
0.5 -0.5 3.445
0.5 -0.5 3.45
0.5 -0.5 3.455
0.5 -0.5 3.46
0.5 -0.5 3.465
0.5 -0.5 3.47
0.5 -0.5 3.475
0.5 -0.5 3.48
0.5 -0.5 3.485
0.5 -0.5 3.49
0.5 -0.5 3.495
0.5 -0.5 3.5
-0.5 0.5 2.5
-0.5 0.5 2.505
-0.5 0.5 2.51
-0.5 0.5 2.515
-0.5 0.5 2.52
-0.5 0.5 2.525
-0.5 0.5 2.53
-0.5 0.5 2.535
-0.5 0.5 2.54
-0.5 0.5 2.545
-0.5 0.5 2.55
-0.5 0.5 2.555
-0.5 0.5 2.56
-0.5 0.5 2.565
-0.5 0.5 2.57
-0.5 0.5 2.575
-0.5 0.5 2.58
-0.5 0.5 2.585
-0.5 0.5 2.59
-0.5 0.5 2.595
-0.5 0.5 2.6
-0.5 0.5 2.605
-0.5 0.5 2.61
-0.5 0.5 2.615
-0.5 0.5 2.62
-0.5 0.5 2.625
-0.5 0.5 2.63
-0.5 0.5 2.635
-0.5 0.5 2.64
-0.5 0.5 2.645
-0.5 0.5 2.65
-0.5 0.5 2.655
-0.5 0.5 2.66
-0.5 0.5 2.665
-0.5 0.5 2.67
-0.5 0.5 2.675
-0.5 0.5 2.68
-0.5 0.5 2.685
-0.5 0.5 2.69
-0.5 0.5 2.695
-0.5 0.5 2.7
-0.5 0.5 2.705
-0.5 0.5 2.71
-0.5 0.5 2.715
-0.5 0.5 2.72
-0.5 0.5 2.725
-0.5 0.5 2.73
-0.5 0.5 2.735
-0.5 0.5 2.74
-0.5 0.5 2.745
-0.5 0.5 2.75
-0.5 0.5 2.755
-0.5 0.5 2.76
-0.5 0.5 2.765
-0.5 0.5 2.77
-0.5 0.5 2.775
-0.5 0.5 2.78
-0.5 0.5 2.785
-0.5 0.5 2.79
-0.5 0.5 2.795
-0.5 0.5 2.8
-0.5 0.5 2.805
-0.5 0.5 2.81
-0.5 0.5 2.815
-0.5 0.5 2.82
-0.5 0.5 2.825
-0.5 0.5 2.83
-0.5 0.5 2.835
-0.5 0.5 2.84
-0.5 0.5 2.845
-0.5 0.5 2.85
-0.5 0.5 2.855
-0.5 0.5 2.86
-0.5 0.5 2.865
-0.5 0.5 2.87
-0.5 0.5 2.875
-0.5 0.5 2.88
-0.5 0.5 2.885
-0.5 0.5 2.89
-0.5 0.5 2.895
-0.5 0.5 2.9
-0.5 0.5 2.905
-0.5 0.5 2.91
-0.5 0.5 2.915
-0.5 0.5 2.92
-0.5 0.5 2.925
-0.5 0.5 2.93
-0.5 0.5 2.935
-0.5 0.5 2.94
-0.5 0.5 2.945
-0.5 0.5 2.95
-0.5 0.5 2.955
-0.5 0.5 2.96
-0.5 0.5 2.965
-0.5 0.5 2.97
-0.5 0.5 2.975
-0.5 0.5 2.98
-0.5 0.5 2.985
-0.5 0.5 2.99
-0.5 0.5 2.995
-0.5 0.5 3
-0.5 0.5 3.005
-0.5 0.5 3.01
-0.5 0.5 3.015
-0.5 0.5 3.02
-0.5 0.5 3.025
-0.5 0.5 3.03
-0.5 0.5 3.035
-0.5 0.5 3.04
-0.5 0.5 3.045
-0.5 0.5 3.05
-0.5 0.5 3.055
-0.5 0.5 3.06
-0.5 0.5 3.065
-0.5 0.5 3.07
-0.5 0.5 3.075
-0.5 0.5 3.08
-0.5 0.5 3.085
-0.5 0.5 3.09
-0.5 0.5 3.095
-0.5 0.5 3.1
-0.5 0.5 3.105
-0.5 0.5 3.11
-0.5 0.5 3.115
-0.5 0.5 3.12
-0.5 0.5 3.125
-0.5 0.5 3.13
-0.5 0.5 3.135
-0.5 0.5 3.14
-0.5 0.5 3.145
-0.5 0.5 3.15
-0.5 0.5 3.155
-0.5 0.5 3.16
-0.5 0.5 3.165
-0.5 0.5 3.17
-0.5 0.5 3.175
-0.5 0.5 3.18
-0.5 0.5 3.185
-0.5 0.5 3.19
-0.5 0.5 3.195
-0.5 0.5 3.2
-0.5 0.5 3.205
-0.5 0.5 3.21
-0.5 0.5 3.215
-0.5 0.5 3.22
-0.5 0.5 3.225
-0.5 0.5 3.23
-0.5 0.5 3.235
-0.5 0.5 3.24
-0.5 0.5 3.245
-0.5 0.5 3.25
-0.5 0.5 3.255
-0.5 0.5 3.26
-0.5 0.5 3.265
-0.5 0.5 3.27
-0.5 0.5 3.275
-0.5 0.5 3.28
-0.5 0.5 3.285
-0.5 0.5 3.29
-0.5 0.5 3.295
-0.5 0.5 3.3
-0.5 0.5 3.305
-0.5 0.5 3.31
-0.5 0.5 3.315
-0.5 0.5 3.32
-0.5 0.5 3.325
-0.5 0.5 3.33
-0.5 0.5 3.335
-0.5 0.5 3.34
-0.5 0.5 3.345
-0.5 0.5 3.35
-0.5 0.5 3.355
-0.5 0.5 3.36
-0.5 0.5 3.365
-0.5 0.5 3.37
-0.5 0.5 3.375
-0.5 0.5 3.38
-0.5 0.5 3.385
-0.5 0.5 3.39
-0.5 0.5 3.395
-0.5 0.5 3.4
-0.5 0.5 3.405
-0.5 0.5 3.41
-0.5 0.5 3.415
-0.5 0.5 3.42
-0.5 0.5 3.425
-0.5 0.5 3.43
-0.5 0.5 3.435
-0.5 0.5 3.44
-0.5 0.5 3.445
-0.5 0.5 3.45
-0.5 0.5 3.455
-0.5 0.5 3.46
-0.5 0.5 3.465
-0.5 0.5 3.47
-0.5 0.5 3.475
-0.5 0.5 3.48
-0.5 0.5 3.485
-0.5 0.5 3.49
-0.5 0.5 3.495
-0.5 0.5 3.5
0.5 0.5 2.5
0.5 0.5 2.505
0.5 0.5 2.51
0.5 0.5 2.515
0.5 0.5 2.52
0.5 0.5 2.525
0.5 0.5 2.53
0.5 0.5 2.535
0.5 0.5 2.54
0.5 0.5 2.545
0.5 0.5 2.55
0.5 0.5 2.555
0.5 0.5 2.56
0.5 0.5 2.565
0.5 0.5 2.57
0.5 0.5 2.575
0.5 0.5 2.58
0.5 0.5 2.585
0.5 0.5 2.59
0.5 0.5 2.595
0.5 0.5 2.6
0.5 0.5 2.605
0.5 0.5 2.61
0.5 0.5 2.615
0.5 0.5 2.62
0.5 0.5 2.625
0.5 0.5 2.63
0.5 0.5 2.635
0.5 0.5 2.64
0.5 0.5 2.645
0.5 0.5 2.65
0.5 0.5 2.655
0.5 0.5 2.66
0.5 0.5 2.665
0.5 0.5 2.67
0.5 0.5 2.675
0.5 0.5 2.68
0.5 0.5 2.685
0.5 0.5 2.69
0.5 0.5 2.695
0.5 0.5 2.7
0.5 0.5 2.705
0.5 0.5 2.71
0.5 0.5 2.715
0.5 0.5 2.72
0.5 0.5 2.725
0.5 0.5 2.73
0.5 0.5 2.735
0.5 0.5 2.74
0.5 0.5 2.745
0.5 0.5 2.75
0.5 0.5 2.755
0.5 0.5 2.76
0.5 0.5 2.765
0.5 0.5 2.77
0.5 0.5 2.775
0.5 0.5 2.78
0.5 0.5 2.785
0.5 0.5 2.79
0.5 0.5 2.795
0.5 0.5 2.8
0.5 0.5 2.805
0.5 0.5 2.81
0.5 0.5 2.815
0.5 0.5 2.82
0.5 0.5 2.825
0.5 0.5 2.83
0.5 0.5 2.835
0.5 0.5 2.84
0.5 0.5 2.845
0.5 0.5 2.85
0.5 0.5 2.855
0.5 0.5 2.86
0.5 0.5 2.865
0.5 0.5 2.87
0.5 0.5 2.875
0.5 0.5 2.88
0.5 0.5 2.885
0.5 0.5 2.89
0.5 0.5 2.895
0.5 0.5 2.9
0.5 0.5 2.905
0.5 0.5 2.91
0.5 0.5 2.915
0.5 0.5 2.92
0.5 0.5 2.925
0.5 0.5 2.93
0.5 0.5 2.935
0.5 0.5 2.94
0.5 0.5 2.945
0.5 0.5 2.95
0.5 0.5 2.955
0.5 0.5 2.96
0.5 0.5 2.965
0.5 0.5 2.97
0.5 0.5 2.975
0.5 0.5 2.98
0.5 0.5 2.985
0.5 0.5 2.99
0.5 0.5 2.995
0.5 0.5 3
0.5 0.5 3.005
0.5 0.5 3.01
0.5 0.5 3.015
0.5 0.5 3.02
0.5 0.5 3.025
0.5 0.5 3.03
0.5 0.5 3.035
0.5 0.5 3.04
0.5 0.5 3.045
0.5 0.5 3.05
0.5 0.5 3.055
0.5 0.5 3.06
0.5 0.5 3.065
0.5 0.5 3.07
0.5 0.5 3.075
0.5 0.5 3.08
0.5 0.5 3.085
0.5 0.5 3.09
0.5 0.5 3.095
0.5 0.5 3.1
0.5 0.5 3.105
0.5 0.5 3.11
0.5 0.5 3.115
0.5 0.5 3.12
0.5 0.5 3.125
0.5 0.5 3.13
0.5 0.5 3.135
0.5 0.5 3.14
0.5 0.5 3.145
0.5 0.5 3.15
0.5 0.5 3.155
0.5 0.5 3.16
0.5 0.5 3.165
0.5 0.5 3.17
0.5 0.5 3.175
0.5 0.5 3.18
0.5 0.5 3.185
0.5 0.5 3.19
0.5 0.5 3.195
0.5 0.5 3.2
0.5 0.5 3.205
0.5 0.5 3.21
0.5 0.5 3.215
0.5 0.5 3.22
0.5 0.5 3.225
0.5 0.5 3.23
0.5 0.5 3.235
0.5 0.5 3.24
0.5 0.5 3.245
0.5 0.5 3.25
0.5 0.5 3.255
0.5 0.5 3.26
0.5 0.5 3.265
0.5 0.5 3.27
0.5 0.5 3.275
0.5 0.5 3.28
0.5 0.5 3.285
0.5 0.5 3.29
0.5 0.5 3.295
0.5 0.5 3.3
0.5 0.5 3.305
0.5 0.5 3.31
0.5 0.5 3.315
0.5 0.5 3.32
0.5 0.5 3.325
0.5 0.5 3.33
0.5 0.5 3.335
0.5 0.5 3.34
0.5 0.5 3.345
0.5 0.5 3.35
0.5 0.5 3.355
0.5 0.5 3.36
0.5 0.5 3.365
0.5 0.5 3.37
0.5 0.5 3.375
0.5 0.5 3.38
0.5 0.5 3.385
0.5 0.5 3.39
0.5 0.5 3.395
0.5 0.5 3.4
0.5 0.5 3.405
0.5 0.5 3.41
0.5 0.5 3.415
0.5 0.5 3.42
0.5 0.5 3.425
0.5 0.5 3.43
0.5 0.5 3.435
0.5 0.5 3.44
0.5 0.5 3.445
0.5 0.5 3.45
0.5 0.5 3.455
0.5 0.5 3.46
0.5 0.5 3.465
0.5 0.5 3.47
0.5 0.5 3.475
0.5 0.5 3.48
0.5 0.5 3.485
0.5 0.5 3.49
0.5 0.5 3.495
0.5 0.5 3.5
